<?xml version="1.0" encoding="UTF-8" standalone="no"?>
<!DOCTYPE svg PUBLIC "-//W3C//DTD SVG 1.1//EN" "http://www.w3.org/Graphics/SVG/1.1/DTD/svg11.dtd">
<svg width="100%" height="100%" viewBox="0 0 300 102" version="1.1" xmlns="http://www.w3.org/2000/svg" xmlns:xlink="http://www.w3.org/1999/xlink" xml:space="preserve" xmlns:serif="http://www.serif.com/" style="fill-rule:evenodd;clip-rule:evenodd;stroke-linejoin:round;stroke-miterlimit:2;">
    <g transform="matrix(1,0,0,1,-213.057,-361.247)">
        <g transform="matrix(1.54329,0,0,1.54329,-115.751,-142.254)">
            <g transform="matrix(1,0,0,1,176.797,300.944)">
                <g transform="matrix(10.9514,0,0,8.70013,-1124.83,-445.331)">
                    <rect x="106.022" y="58.749" width="7.098" height="2.073"/>
                </g>
                <g transform="matrix(0.478735,0,0,0.478735,-51.3255,-106.889)">
                    <g transform="matrix(1,0,0,1,-10.0756,0)">
                        <path d="M388.165,295.451C388.165,303.764 384.719,310.467 377.829,315.56C370.938,320.654 361.305,323.201 348.93,323.201L342.086,323.201L336.836,345.935L318.743,345.935L334.868,276.139L359.946,276.139C364.508,276.139 368.485,276.451 371.876,277.076C375.266,277.701 378.196,278.779 380.665,280.31C383.102,281.842 384.961,283.834 386.243,286.287C387.524,288.74 388.165,291.795 388.165,295.451ZM368.946,297.185C368.946,294.467 367.961,292.451 365.993,291.139C364.024,289.826 361.102,289.17 357.227,289.17L349.961,289.17L345.133,310.076L351.602,310.076C357.071,310.076 361.329,308.959 364.376,306.725C367.422,304.49 368.946,301.31 368.946,297.185Z" style="fill-rule:nonzero;"/>
                    </g>
                    <g transform="matrix(1,0,0,1,-6.41421,0)">
                        <path d="M324.956,276.139L321.909,289.357L289.331,289.357L285.799,304.531L316.033,304.531L312.939,317.796L282.705,317.796L279.253,332.717L311.831,332.717L308.831,345.935L258.253,345.935L274.378,276.139L324.956,276.139Z" style="fill-rule:nonzero;"/>
                    </g>
                    <path d="M261.747,276.139L245.622,345.935L227.528,345.935L234.027,317.796L207.543,317.796L201.044,345.935L182.95,345.935L199.075,276.139L217.169,276.139L210.59,304.531L237.074,304.531L243.653,276.139L261.747,276.139Z" style="fill-rule:nonzero;"/>
                </g>
                <g transform="matrix(0.478735,0,0,0.478735,-63.8532,-94.955)">
                    <g transform="matrix(1.03,0,0,1,-11.1088,0)">
                        <g transform="matrix(72,0,0,72,613.724,372.903)">
                        </g>
                        <text x="370.292px" y="372.903px" style="font-family:'Helvetica-Light', 'Helvetica', sans-serif;font-weight:300;font-size:72px;">T<tspan x="407.948px 429.548px 467.204px 480.812px 518.468px 532.076px 569.732px " y="372.903px 372.903px 372.903px 372.903px 372.903px 372.903px 372.903px ">raining</tspan></text>
                    </g>
                </g>
                <g transform="matrix(0.478735,0,0,0.478735,-28.145,-130.464)">
                    <g transform="matrix(1.03,0,0,1,-11.1088,0)">
                        <g transform="matrix(64.968,0,0,64.968,538.57,372.903)">
                        </g>
                        <text x="370.292px" y="372.903px" style="font-family:'Helvetica-Bold', 'Helvetica';font-weight:700;font-size:64.968px;fill:rgb(143,143,143);">(<tspan x="389.783px 434.557px 475.746px 516.935px " y="372.903px 372.903px 372.903px 372.903px ">DEV)</tspan></text>
                    </g>
                </g>
            </g>
        </g>
    </g>
</svg>
